<svg xmlns="http://www.w3.org/2000/svg" width="775" height="155" viewBox="0 0 775 155" role="img" aria-labelledby="title description">
  <title id="title">Haruko386&apos;s contribution Game of Life</title>
  <desc id="description">Seeded by 2026-07-17 (41), 2026-07-02 (31), 2026-08-14 (27). 2 frames; reset reason: extinct.</desc>
  <style>
    .frame { opacity: 0; fill: #7ee787; filter: drop-shadow(0 0 3px #7ee787); animation: lifegame 0.900s linear infinite; }
    @keyframes lifegame { 0%, 46.0000% { opacity: 1; } 46.0100%, 100% { opacity: 0; } }
    @media (prefers-reduced-motion: reduce) { .frame { animation: none; opacity: 0; } .frame-0 { opacity: 1; } }
  </style>
  <rect width="100%" height="100%" rx="8" fill="#0d1117"/>
  <text x="18" y="25" fill="#8b949e" font-family="ui-monospace, SFMono-Regular, Menlo, Consolas, monospace" font-size="12">Haruko386 · 1737 contributions · Conway's Game of Life</text>
  <g aria-hidden="true"><rect x="18" y="42" width="11" height="11" rx="2" fill="#161b22"><title>2025-08-24: 0 contributions</title></rect><rect x="18" y="56" width="11" height="11" rx="2" fill="#0e4429"><title>2025-08-25: 1 contribution</title></rect><rect x="18" y="70" width="11" height="11" rx="2" fill="#161b22"><title>2025-08-26: 0 contributions</title></rect><rect x="18" y="84" width="11" height="11" rx="2" fill="#161b22"><title>2025-08-27: 0 contributions</title></rect><rect x="18" y="98" width="11" height="11" rx="2" fill="#0e4429"><title>2025-08-28: 2 contributions</title></rect><rect x="18" y="112" width="11" height="11" rx="2" fill="#161b22"><title>2025-08-29: 0 contributions</title></rect><rect x="18" y="126" width="11" height="11" rx="2" fill="#161b22"><title>2025-08-30: 0 contributions</title></rect><rect x="32" y="42" width="11" height="11" rx="2" fill="#161b22"><title>2025-08-31: 0 contributions</title></rect><rect x="32" y="56" width="11" height="11" rx="2" fill="#161b22"><title>2025-09-01: 0 contributions</title></rect><rect x="32" y="70" width="11" height="11" rx="2" fill="#0e4429"><title>2025-09-02: 6 contributions</title></rect><rect x="32" y="84" width="11" height="11" rx="2" fill="#0e4429"><title>2025-09-03: 9 contributions</title></rect><rect x="32" y="98" width="11" height="11" rx="2" fill="#161b22"><title>2025-09-04: 0 contributions</title></rect><rect x="32" y="112" width="11" height="11" rx="2" fill="#0e4429"><title>2025-09-05: 2 contributions</title></rect><rect x="32" y="126" width="11" height="11" rx="2" fill="#161b22"><title>2025-09-06: 0 contributions</title></rect><rect x="46" y="42" width="11" height="11" rx="2" fill="#161b22"><title>2025-09-07: 0 contributions</title></rect><rect x="46" y="56" width="11" height="11" rx="2" fill="#0e4429"><title>2025-09-08: 6 contributions</title></rect><rect x="46" y="70" width="11" height="11" rx="2" fill="#006d32"><title>2025-09-09: 17 contributions</title></rect><rect x="46" y="84" width="11" height="11" rx="2" fill="#26a641"><title>2025-09-10: 21 contributions</title></rect><rect x="46" y="98" width="11" height="11" rx="2" fill="#161b22"><title>2025-09-11: 0 contributions</title></rect><rect x="46" y="112" width="11" height="11" rx="2" fill="#0e4429"><title>2025-09-12: 1 contribution</title></rect><rect x="46" y="126" width="11" height="11" rx="2" fill="#0e4429"><title>2025-09-13: 2 contributions</title></rect><rect x="60" y="42" width="11" height="11" rx="2" fill="#161b22"><title>2025-09-14: 0 contributions</title></rect><rect x="60" y="56" width="11" height="11" rx="2" fill="#161b22"><title>2025-09-15: 0 contributions</title></rect><rect x="60" y="70" width="11" height="11" rx="2" fill="#0e4429"><title>2025-09-16: 2 contributions</title></rect><rect x="60" y="84" width="11" height="11" rx="2" fill="#161b22"><title>2025-09-17: 0 contributions</title></rect><rect x="60" y="98" width="11" height="11" rx="2" fill="#161b22"><title>2025-09-18: 0 contributions</title></rect><rect x="60" y="112" width="11" height="11" rx="2" fill="#161b22"><title>2025-09-19: 0 contributions</title></rect><rect x="60" y="126" width="11" height="11" rx="2" fill="#0e4429"><title>2025-09-20: 2 contributions</title></rect><rect x="74" y="42" width="11" height="11" rx="2" fill="#161b22"><title>2025-09-21: 0 contributions</title></rect><rect x="74" y="56" width="11" height="11" rx="2" fill="#161b22"><title>2025-09-22: 0 contributions</title></rect><rect x="74" y="70" width="11" height="11" rx="2" fill="#006d32"><title>2025-09-23: 12 contributions</title></rect><rect x="74" y="84" width="11" height="11" rx="2" fill="#0e4429"><title>2025-09-24: 1 contribution</title></rect><rect x="74" y="98" width="11" height="11" rx="2" fill="#0e4429"><title>2025-09-25: 1 contribution</title></rect><rect x="74" y="112" width="11" height="11" rx="2" fill="#161b22"><title>2025-09-26: 0 contributions</title></rect><rect x="74" y="126" width="11" height="11" rx="2" fill="#0e4429"><title>2025-09-27: 2 contributions</title></rect><rect x="88" y="42" width="11" height="11" rx="2" fill="#0e4429"><title>2025-09-28: 6 contributions</title></rect><rect x="88" y="56" width="11" height="11" rx="2" fill="#0e4429"><title>2025-09-29: 2 contributions</title></rect><rect x="88" y="70" width="11" height="11" rx="2" fill="#0e4429"><title>2025-09-30: 6 contributions</title></rect><rect x="88" y="84" width="11" height="11" rx="2" fill="#161b22"><title>2025-10-01: 0 contributions</title></rect><rect x="88" y="98" width="11" height="11" rx="2" fill="#161b22"><title>2025-10-02: 0 contributions</title></rect><rect x="88" y="112" width="11" height="11" rx="2" fill="#161b22"><title>2025-10-03: 0 contributions</title></rect><rect x="88" y="126" width="11" height="11" rx="2" fill="#161b22"><title>2025-10-04: 0 contributions</title></rect><rect x="102" y="42" width="11" height="11" rx="2" fill="#161b22"><title>2025-10-05: 0 contributions</title></rect><rect x="102" y="56" width="11" height="11" rx="2" fill="#161b22"><title>2025-10-06: 0 contributions</title></rect><rect x="102" y="70" width="11" height="11" rx="2" fill="#0e4429"><title>2025-10-07: 4 contributions</title></rect><rect x="102" y="84" width="11" height="11" rx="2" fill="#161b22"><title>2025-10-08: 0 contributions</title></rect><rect x="102" y="98" width="11" height="11" rx="2" fill="#006d32"><title>2025-10-09: 12 contributions</title></rect><rect x="102" y="112" width="11" height="11" rx="2" fill="#0e4429"><title>2025-10-10: 6 contributions</title></rect><rect x="102" y="126" width="11" height="11" rx="2" fill="#0e4429"><title>2025-10-11: 1 contribution</title></rect><rect x="116" y="42" width="11" height="11" rx="2" fill="#161b22"><title>2025-10-12: 0 contributions</title></rect><rect x="116" y="56" width="11" height="11" rx="2" fill="#0e4429"><title>2025-10-13: 1 contribution</title></rect><rect x="116" y="70" width="11" height="11" rx="2" fill="#161b22"><title>2025-10-14: 0 contributions</title></rect><rect x="116" y="84" width="11" height="11" rx="2" fill="#0e4429"><title>2025-10-15: 4 contributions</title></rect><rect x="116" y="98" width="11" height="11" rx="2" fill="#0e4429"><title>2025-10-16: 1 contribution</title></rect><rect x="116" y="112" width="11" height="11" rx="2" fill="#0e4429"><title>2025-10-17: 1 contribution</title></rect><rect x="116" y="126" width="11" height="11" rx="2" fill="#161b22"><title>2025-10-18: 0 contributions</title></rect><rect x="130" y="42" width="11" height="11" rx="2" fill="#161b22"><title>2025-10-19: 0 contributions</title></rect><rect x="130" y="56" width="11" height="11" rx="2" fill="#161b22"><title>2025-10-20: 0 contributions</title></rect><rect x="130" y="70" width="11" height="11" rx="2" fill="#0e4429"><title>2025-10-21: 3 contributions</title></rect><rect x="130" y="84" width="11" height="11" rx="2" fill="#161b22"><title>2025-10-22: 0 contributions</title></rect><rect x="130" y="98" width="11" height="11" rx="2" fill="#161b22"><title>2025-10-23: 0 contributions</title></rect><rect x="130" y="112" width="11" height="11" rx="2" fill="#0e4429"><title>2025-10-24: 2 contributions</title></rect><rect x="130" y="126" width="11" height="11" rx="2" fill="#0e4429"><title>2025-10-25: 10 contributions</title></rect><rect x="144" y="42" width="11" height="11" rx="2" fill="#161b22"><title>2025-10-26: 0 contributions</title></rect><rect x="144" y="56" width="11" height="11" rx="2" fill="#0e4429"><title>2025-10-27: 2 contributions</title></rect><rect x="144" y="70" width="11" height="11" rx="2" fill="#161b22"><title>2025-10-28: 0 contributions</title></rect><rect x="144" y="84" width="11" height="11" rx="2" fill="#161b22"><title>2025-10-29: 0 contributions</title></rect><rect x="144" y="98" width="11" height="11" rx="2" fill="#161b22"><title>2025-10-30: 0 contributions</title></rect><rect x="144" y="112" width="11" height="11" rx="2" fill="#161b22"><title>2025-10-31: 0 contributions</title></rect><rect x="144" y="126" width="11" height="11" rx="2" fill="#0e4429"><title>2025-11-01: 6 contributions</title></rect><rect x="158" y="42" width="11" height="11" rx="2" fill="#0e4429"><title>2025-11-02: 1 contribution</title></rect><rect x="158" y="56" width="11" height="11" rx="2" fill="#0e4429"><title>2025-11-03: 2 contributions</title></rect><rect x="158" y="70" width="11" height="11" rx="2" fill="#0e4429"><title>2025-11-04: 5 contributions</title></rect><rect x="158" y="84" width="11" height="11" rx="2" fill="#0e4429"><title>2025-11-05: 2 contributions</title></rect><rect x="158" y="98" width="11" height="11" rx="2" fill="#161b22"><title>2025-11-06: 0 contributions</title></rect><rect x="158" y="112" width="11" height="11" rx="2" fill="#0e4429"><title>2025-11-07: 1 contribution</title></rect><rect x="158" y="126" width="11" height="11" rx="2" fill="#161b22"><title>2025-11-08: 0 contributions</title></rect><rect x="172" y="42" width="11" height="11" rx="2" fill="#161b22"><title>2025-11-09: 0 contributions</title></rect><rect x="172" y="56" width="11" height="11" rx="2" fill="#0e4429"><title>2025-11-10: 4 contributions</title></rect><rect x="172" y="70" width="11" height="11" rx="2" fill="#0e4429"><title>2025-11-11: 1 contribution</title></rect><rect x="172" y="84" width="11" height="11" rx="2" fill="#161b22"><title>2025-11-12: 0 contributions</title></rect><rect x="172" y="98" width="11" height="11" rx="2" fill="#161b22"><title>2025-11-13: 0 contributions</title></rect><rect x="172" y="112" width="11" height="11" rx="2" fill="#161b22"><title>2025-11-14: 0 contributions</title></rect><rect x="172" y="126" width="11" height="11" rx="2" fill="#161b22"><title>2025-11-15: 0 contributions</title></rect><rect x="186" y="42" width="11" height="11" rx="2" fill="#161b22"><title>2025-11-16: 0 contributions</title></rect><rect x="186" y="56" width="11" height="11" rx="2" fill="#0e4429"><title>2025-11-17: 8 contributions</title></rect><rect x="186" y="70" width="11" height="11" rx="2" fill="#0e4429"><title>2025-11-18: 1 contribution</title></rect><rect x="186" y="84" width="11" height="11" rx="2" fill="#161b22"><title>2025-11-19: 0 contributions</title></rect><rect x="186" y="98" width="11" height="11" rx="2" fill="#161b22"><title>2025-11-20: 0 contributions</title></rect><rect x="186" y="112" width="11" height="11" rx="2" fill="#161b22"><title>2025-11-21: 0 contributions</title></rect><rect x="186" y="126" width="11" height="11" rx="2" fill="#161b22"><title>2025-11-22: 0 contributions</title></rect><rect x="200" y="42" width="11" height="11" rx="2" fill="#0e4429"><title>2025-11-23: 2 contributions</title></rect><rect x="200" y="56" width="11" height="11" rx="2" fill="#0e4429"><title>2025-11-24: 4 contributions</title></rect><rect x="200" y="70" width="11" height="11" rx="2" fill="#161b22"><title>2025-11-25: 0 contributions</title></rect><rect x="200" y="84" width="11" height="11" rx="2" fill="#161b22"><title>2025-11-26: 0 contributions</title></rect><rect x="200" y="98" width="11" height="11" rx="2" fill="#161b22"><title>2025-11-27: 0 contributions</title></rect><rect x="200" y="112" width="11" height="11" rx="2" fill="#161b22"><title>2025-11-28: 0 contributions</title></rect><rect x="200" y="126" width="11" height="11" rx="2" fill="#161b22"><title>2025-11-29: 0 contributions</title></rect><rect x="214" y="42" width="11" height="11" rx="2" fill="#161b22"><title>2025-11-30: 0 contributions</title></rect><rect x="214" y="56" width="11" height="11" rx="2" fill="#0e4429"><title>2025-12-01: 1 contribution</title></rect><rect x="214" y="70" width="11" height="11" rx="2" fill="#0e4429"><title>2025-12-02: 1 contribution</title></rect><rect x="214" y="84" width="11" height="11" rx="2" fill="#0e4429"><title>2025-12-03: 7 contributions</title></rect><rect x="214" y="98" width="11" height="11" rx="2" fill="#0e4429"><title>2025-12-04: 7 contributions</title></rect><rect x="214" y="112" width="11" height="11" rx="2" fill="#0e4429"><title>2025-12-05: 10 contributions</title></rect><rect x="214" y="126" width="11" height="11" rx="2" fill="#161b22"><title>2025-12-06: 0 contributions</title></rect><rect x="228" y="42" width="11" height="11" rx="2" fill="#161b22"><title>2025-12-07: 0 contributions</title></rect><rect x="228" y="56" width="11" height="11" rx="2" fill="#0e4429"><title>2025-12-08: 5 contributions</title></rect><rect x="228" y="70" width="11" height="11" rx="2" fill="#0e4429"><title>2025-12-09: 3 contributions</title></rect><rect x="228" y="84" width="11" height="11" rx="2" fill="#0e4429"><title>2025-12-10: 3 contributions</title></rect><rect x="228" y="98" width="11" height="11" rx="2" fill="#0e4429"><title>2025-12-11: 2 contributions</title></rect><rect x="228" y="112" width="11" height="11" rx="2" fill="#0e4429"><title>2025-12-12: 2 contributions</title></rect><rect x="228" y="126" width="11" height="11" rx="2" fill="#161b22"><title>2025-12-13: 0 contributions</title></rect><rect x="242" y="42" width="11" height="11" rx="2" fill="#161b22"><title>2025-12-14: 0 contributions</title></rect><rect x="242" y="56" width="11" height="11" rx="2" fill="#0e4429"><title>2025-12-15: 2 contributions</title></rect><rect x="242" y="70" width="11" height="11" rx="2" fill="#0e4429"><title>2025-12-16: 3 contributions</title></rect><rect x="242" y="84" width="11" height="11" rx="2" fill="#161b22"><title>2025-12-17: 0 contributions</title></rect><rect x="242" y="98" width="11" height="11" rx="2" fill="#0e4429"><title>2025-12-18: 3 contributions</title></rect><rect x="242" y="112" width="11" height="11" rx="2" fill="#0e4429"><title>2025-12-19: 6 contributions</title></rect><rect x="242" y="126" width="11" height="11" rx="2" fill="#161b22"><title>2025-12-20: 0 contributions</title></rect><rect x="256" y="42" width="11" height="11" rx="2" fill="#0e4429"><title>2025-12-21: 1 contribution</title></rect><rect x="256" y="56" width="11" height="11" rx="2" fill="#0e4429"><title>2025-12-22: 6 contributions</title></rect><rect x="256" y="70" width="11" height="11" rx="2" fill="#0e4429"><title>2025-12-23: 8 contributions</title></rect><rect x="256" y="84" width="11" height="11" rx="2" fill="#161b22"><title>2025-12-24: 0 contributions</title></rect><rect x="256" y="98" width="11" height="11" rx="2" fill="#0e4429"><title>2025-12-25: 9 contributions</title></rect><rect x="256" y="112" width="11" height="11" rx="2" fill="#0e4429"><title>2025-12-26: 4 contributions</title></rect><rect x="256" y="126" width="11" height="11" rx="2" fill="#161b22"><title>2025-12-27: 0 contributions</title></rect><rect x="270" y="42" width="11" height="11" rx="2" fill="#0e4429"><title>2025-12-28: 1 contribution</title></rect><rect x="270" y="56" width="11" height="11" rx="2" fill="#0e4429"><title>2025-12-29: 2 contributions</title></rect><rect x="270" y="70" width="11" height="11" rx="2" fill="#0e4429"><title>2025-12-30: 2 contributions</title></rect><rect x="270" y="84" width="11" height="11" rx="2" fill="#0e4429"><title>2025-12-31: 9 contributions</title></rect><rect x="270" y="98" width="11" height="11" rx="2" fill="#161b22"><title>2026-01-01: 0 contributions</title></rect><rect x="270" y="112" width="11" height="11" rx="2" fill="#0e4429"><title>2026-01-02: 4 contributions</title></rect><rect x="270" y="126" width="11" height="11" rx="2" fill="#161b22"><title>2026-01-03: 0 contributions</title></rect><rect x="284" y="42" width="11" height="11" rx="2" fill="#0e4429"><title>2026-01-04: 5 contributions</title></rect><rect x="284" y="56" width="11" height="11" rx="2" fill="#0e4429"><title>2026-01-05: 4 contributions</title></rect><rect x="284" y="70" width="11" height="11" rx="2" fill="#161b22"><title>2026-01-06: 0 contributions</title></rect><rect x="284" y="84" width="11" height="11" rx="2" fill="#161b22"><title>2026-01-07: 0 contributions</title></rect><rect x="284" y="98" width="11" height="11" rx="2" fill="#161b22"><title>2026-01-08: 0 contributions</title></rect><rect x="284" y="112" width="11" height="11" rx="2" fill="#0e4429"><title>2026-01-09: 2 contributions</title></rect><rect x="284" y="126" width="11" height="11" rx="2" fill="#006d32"><title>2026-01-10: 11 contributions</title></rect><rect x="298" y="42" width="11" height="11" rx="2" fill="#161b22"><title>2026-01-11: 0 contributions</title></rect><rect x="298" y="56" width="11" height="11" rx="2" fill="#161b22"><title>2026-01-12: 0 contributions</title></rect><rect x="298" y="70" width="11" height="11" rx="2" fill="#161b22"><title>2026-01-13: 0 contributions</title></rect><rect x="298" y="84" width="11" height="11" rx="2" fill="#161b22"><title>2026-01-14: 0 contributions</title></rect><rect x="298" y="98" width="11" height="11" rx="2" fill="#161b22"><title>2026-01-15: 0 contributions</title></rect><rect x="298" y="112" width="11" height="11" rx="2" fill="#161b22"><title>2026-01-16: 0 contributions</title></rect><rect x="298" y="126" width="11" height="11" rx="2" fill="#161b22"><title>2026-01-17: 0 contributions</title></rect><rect x="312" y="42" width="11" height="11" rx="2" fill="#161b22"><title>2026-01-18: 0 contributions</title></rect><rect x="312" y="56" width="11" height="11" rx="2" fill="#0e4429"><title>2026-01-19: 5 contributions</title></rect><rect x="312" y="70" width="11" height="11" rx="2" fill="#161b22"><title>2026-01-20: 0 contributions</title></rect><rect x="312" y="84" width="11" height="11" rx="2" fill="#0e4429"><title>2026-01-21: 2 contributions</title></rect><rect x="312" y="98" width="11" height="11" rx="2" fill="#161b22"><title>2026-01-22: 0 contributions</title></rect><rect x="312" y="112" width="11" height="11" rx="2" fill="#0e4429"><title>2026-01-23: 3 contributions</title></rect><rect x="312" y="126" width="11" height="11" rx="2" fill="#161b22"><title>2026-01-24: 0 contributions</title></rect><rect x="326" y="42" width="11" height="11" rx="2" fill="#0e4429"><title>2026-01-25: 9 contributions</title></rect><rect x="326" y="56" width="11" height="11" rx="2" fill="#0e4429"><title>2026-01-26: 10 contributions</title></rect><rect x="326" y="70" width="11" height="11" rx="2" fill="#0e4429"><title>2026-01-27: 1 contribution</title></rect><rect x="326" y="84" width="11" height="11" rx="2" fill="#0e4429"><title>2026-01-28: 5 contributions</title></rect><rect x="326" y="98" width="11" height="11" rx="2" fill="#0e4429"><title>2026-01-29: 1 contribution</title></rect><rect x="326" y="112" width="11" height="11" rx="2" fill="#0e4429"><title>2026-01-30: 6 contributions</title></rect><rect x="326" y="126" width="11" height="11" rx="2" fill="#161b22"><title>2026-01-31: 0 contributions</title></rect><rect x="340" y="42" width="11" height="11" rx="2" fill="#0e4429"><title>2026-02-01: 2 contributions</title></rect><rect x="340" y="56" width="11" height="11" rx="2" fill="#006d32"><title>2026-02-02: 14 contributions</title></rect><rect x="340" y="70" width="11" height="11" rx="2" fill="#006d32"><title>2026-02-03: 12 contributions</title></rect><rect x="340" y="84" width="11" height="11" rx="2" fill="#0e4429"><title>2026-02-04: 5 contributions</title></rect><rect x="340" y="98" width="11" height="11" rx="2" fill="#0e4429"><title>2026-02-05: 7 contributions</title></rect><rect x="340" y="112" width="11" height="11" rx="2" fill="#0e4429"><title>2026-02-06: 8 contributions</title></rect><rect x="340" y="126" width="11" height="11" rx="2" fill="#0e4429"><title>2026-02-07: 10 contributions</title></rect><rect x="354" y="42" width="11" height="11" rx="2" fill="#161b22"><title>2026-02-08: 0 contributions</title></rect><rect x="354" y="56" width="11" height="11" rx="2" fill="#0e4429"><title>2026-02-09: 3 contributions</title></rect><rect x="354" y="70" width="11" height="11" rx="2" fill="#161b22"><title>2026-02-10: 0 contributions</title></rect><rect x="354" y="84" width="11" height="11" rx="2" fill="#161b22"><title>2026-02-11: 0 contributions</title></rect><rect x="354" y="98" width="11" height="11" rx="2" fill="#0e4429"><title>2026-02-12: 2 contributions</title></rect><rect x="354" y="112" width="11" height="11" rx="2" fill="#161b22"><title>2026-02-13: 0 contributions</title></rect><rect x="354" y="126" width="11" height="11" rx="2" fill="#161b22"><title>2026-02-14: 0 contributions</title></rect><rect x="368" y="42" width="11" height="11" rx="2" fill="#0e4429"><title>2026-02-15: 1 contribution</title></rect><rect x="368" y="56" width="11" height="11" rx="2" fill="#161b22"><title>2026-02-16: 0 contributions</title></rect><rect x="368" y="70" width="11" height="11" rx="2" fill="#161b22"><title>2026-02-17: 0 contributions</title></rect><rect x="368" y="84" width="11" height="11" rx="2" fill="#161b22"><title>2026-02-18: 0 contributions</title></rect><rect x="368" y="98" width="11" height="11" rx="2" fill="#161b22"><title>2026-02-19: 0 contributions</title></rect><rect x="368" y="112" width="11" height="11" rx="2" fill="#161b22"><title>2026-02-20: 0 contributions</title></rect><rect x="368" y="126" width="11" height="11" rx="2" fill="#161b22"><title>2026-02-21: 0 contributions</title></rect><rect x="382" y="42" width="11" height="11" rx="2" fill="#0e4429"><title>2026-02-22: 1 contribution</title></rect><rect x="382" y="56" width="11" height="11" rx="2" fill="#161b22"><title>2026-02-23: 0 contributions</title></rect><rect x="382" y="70" width="11" height="11" rx="2" fill="#161b22"><title>2026-02-24: 0 contributions</title></rect><rect x="382" y="84" width="11" height="11" rx="2" fill="#161b22"><title>2026-02-25: 0 contributions</title></rect><rect x="382" y="98" width="11" height="11" rx="2" fill="#161b22"><title>2026-02-26: 0 contributions</title></rect><rect x="382" y="112" width="11" height="11" rx="2" fill="#161b22"><title>2026-02-27: 0 contributions</title></rect><rect x="382" y="126" width="11" height="11" rx="2" fill="#161b22"><title>2026-02-28: 0 contributions</title></rect><rect x="396" y="42" width="11" height="11" rx="2" fill="#0e4429"><title>2026-03-01: 5 contributions</title></rect><rect x="396" y="56" width="11" height="11" rx="2" fill="#161b22"><title>2026-03-02: 0 contributions</title></rect><rect x="396" y="70" width="11" height="11" rx="2" fill="#161b22"><title>2026-03-03: 0 contributions</title></rect><rect x="396" y="84" width="11" height="11" rx="2" fill="#006d32"><title>2026-03-04: 12 contributions</title></rect><rect x="396" y="98" width="11" height="11" rx="2" fill="#0e4429"><title>2026-03-05: 8 contributions</title></rect><rect x="396" y="112" width="11" height="11" rx="2" fill="#0e4429"><title>2026-03-06: 1 contribution</title></rect><rect x="396" y="126" width="11" height="11" rx="2" fill="#0e4429"><title>2026-03-07: 3 contributions</title></rect><rect x="410" y="42" width="11" height="11" rx="2" fill="#161b22"><title>2026-03-08: 0 contributions</title></rect><rect x="410" y="56" width="11" height="11" rx="2" fill="#161b22"><title>2026-03-09: 0 contributions</title></rect><rect x="410" y="70" width="11" height="11" rx="2" fill="#0e4429"><title>2026-03-10: 4 contributions</title></rect><rect x="410" y="84" width="11" height="11" rx="2" fill="#0e4429"><title>2026-03-11: 5 contributions</title></rect><rect x="410" y="98" width="11" height="11" rx="2" fill="#0e4429"><title>2026-03-12: 9 contributions</title></rect><rect x="410" y="112" width="11" height="11" rx="2" fill="#0e4429"><title>2026-03-13: 9 contributions</title></rect><rect x="410" y="126" width="11" height="11" rx="2" fill="#161b22"><title>2026-03-14: 0 contributions</title></rect><rect x="424" y="42" width="11" height="11" rx="2" fill="#0e4429"><title>2026-03-15: 3 contributions</title></rect><rect x="424" y="56" width="11" height="11" rx="2" fill="#0e4429"><title>2026-03-16: 2 contributions</title></rect><rect x="424" y="70" width="11" height="11" rx="2" fill="#0e4429"><title>2026-03-17: 3 contributions</title></rect><rect x="424" y="84" width="11" height="11" rx="2" fill="#161b22"><title>2026-03-18: 0 contributions</title></rect><rect x="424" y="98" width="11" height="11" rx="2" fill="#0e4429"><title>2026-03-19: 1 contribution</title></rect><rect x="424" y="112" width="11" height="11" rx="2" fill="#161b22"><title>2026-03-20: 0 contributions</title></rect><rect x="424" y="126" width="11" height="11" rx="2" fill="#161b22"><title>2026-03-21: 0 contributions</title></rect><rect x="438" y="42" width="11" height="11" rx="2" fill="#0e4429"><title>2026-03-22: 3 contributions</title></rect><rect x="438" y="56" width="11" height="11" rx="2" fill="#0e4429"><title>2026-03-23: 1 contribution</title></rect><rect x="438" y="70" width="11" height="11" rx="2" fill="#0e4429"><title>2026-03-24: 1 contribution</title></rect><rect x="438" y="84" width="11" height="11" rx="2" fill="#0e4429"><title>2026-03-25: 6 contributions</title></rect><rect x="438" y="98" width="11" height="11" rx="2" fill="#161b22"><title>2026-03-26: 0 contributions</title></rect><rect x="438" y="112" width="11" height="11" rx="2" fill="#161b22"><title>2026-03-27: 0 contributions</title></rect><rect x="438" y="126" width="11" height="11" rx="2" fill="#161b22"><title>2026-03-28: 0 contributions</title></rect><rect x="452" y="42" width="11" height="11" rx="2" fill="#161b22"><title>2026-03-29: 0 contributions</title></rect><rect x="452" y="56" width="11" height="11" rx="2" fill="#161b22"><title>2026-03-30: 0 contributions</title></rect><rect x="452" y="70" width="11" height="11" rx="2" fill="#0e4429"><title>2026-03-31: 2 contributions</title></rect><rect x="452" y="84" width="11" height="11" rx="2" fill="#0e4429"><title>2026-04-01: 2 contributions</title></rect><rect x="452" y="98" width="11" height="11" rx="2" fill="#006d32"><title>2026-04-02: 17 contributions</title></rect><rect x="452" y="112" width="11" height="11" rx="2" fill="#161b22"><title>2026-04-03: 0 contributions</title></rect><rect x="452" y="126" width="11" height="11" rx="2" fill="#0e4429"><title>2026-04-04: 1 contribution</title></rect><rect x="466" y="42" width="11" height="11" rx="2" fill="#161b22"><title>2026-04-05: 0 contributions</title></rect><rect x="466" y="56" width="11" height="11" rx="2" fill="#006d32"><title>2026-04-06: 11 contributions</title></rect><rect x="466" y="70" width="11" height="11" rx="2" fill="#0e4429"><title>2026-04-07: 5 contributions</title></rect><rect x="466" y="84" width="11" height="11" rx="2" fill="#161b22"><title>2026-04-08: 0 contributions</title></rect><rect x="466" y="98" width="11" height="11" rx="2" fill="#0e4429"><title>2026-04-09: 4 contributions</title></rect><rect x="466" y="112" width="11" height="11" rx="2" fill="#0e4429"><title>2026-04-10: 2 contributions</title></rect><rect x="466" y="126" width="11" height="11" rx="2" fill="#0e4429"><title>2026-04-11: 3 contributions</title></rect><rect x="480" y="42" width="11" height="11" rx="2" fill="#161b22"><title>2026-04-12: 0 contributions</title></rect><rect x="480" y="56" width="11" height="11" rx="2" fill="#0e4429"><title>2026-04-13: 4 contributions</title></rect><rect x="480" y="70" width="11" height="11" rx="2" fill="#0e4429"><title>2026-04-14: 2 contributions</title></rect><rect x="480" y="84" width="11" height="11" rx="2" fill="#0e4429"><title>2026-04-15: 2 contributions</title></rect><rect x="480" y="98" width="11" height="11" rx="2" fill="#161b22"><title>2026-04-16: 0 contributions</title></rect><rect x="480" y="112" width="11" height="11" rx="2" fill="#0e4429"><title>2026-04-17: 2 contributions</title></rect><rect x="480" y="126" width="11" height="11" rx="2" fill="#161b22"><title>2026-04-18: 0 contributions</title></rect><rect x="494" y="42" width="11" height="11" rx="2" fill="#0e4429"><title>2026-04-19: 1 contribution</title></rect><rect x="494" y="56" width="11" height="11" rx="2" fill="#161b22"><title>2026-04-20: 0 contributions</title></rect><rect x="494" y="70" width="11" height="11" rx="2" fill="#0e4429"><title>2026-04-21: 7 contributions</title></rect><rect x="494" y="84" width="11" height="11" rx="2" fill="#161b22"><title>2026-04-22: 0 contributions</title></rect><rect x="494" y="98" width="11" height="11" rx="2" fill="#161b22"><title>2026-04-23: 0 contributions</title></rect><rect x="494" y="112" width="11" height="11" rx="2" fill="#0e4429"><title>2026-04-24: 2 contributions</title></rect><rect x="494" y="126" width="11" height="11" rx="2" fill="#161b22"><title>2026-04-25: 0 contributions</title></rect><rect x="508" y="42" width="11" height="11" rx="2" fill="#006d32"><title>2026-04-26: 13 contributions</title></rect><rect x="508" y="56" width="11" height="11" rx="2" fill="#0e4429"><title>2026-04-27: 1 contribution</title></rect><rect x="508" y="70" width="11" height="11" rx="2" fill="#0e4429"><title>2026-04-28: 6 contributions</title></rect><rect x="508" y="84" width="11" height="11" rx="2" fill="#0e4429"><title>2026-04-29: 5 contributions</title></rect><rect x="508" y="98" width="11" height="11" rx="2" fill="#0e4429"><title>2026-04-30: 4 contributions</title></rect><rect x="508" y="112" width="11" height="11" rx="2" fill="#0e4429"><title>2026-05-01: 5 contributions</title></rect><rect x="508" y="126" width="11" height="11" rx="2" fill="#161b22"><title>2026-05-02: 0 contributions</title></rect><rect x="522" y="42" width="11" height="11" rx="2" fill="#161b22"><title>2026-05-03: 0 contributions</title></rect><rect x="522" y="56" width="11" height="11" rx="2" fill="#161b22"><title>2026-05-04: 0 contributions</title></rect><rect x="522" y="70" width="11" height="11" rx="2" fill="#0e4429"><title>2026-05-05: 4 contributions</title></rect><rect x="522" y="84" width="11" height="11" rx="2" fill="#0e4429"><title>2026-05-06: 6 contributions</title></rect><rect x="522" y="98" width="11" height="11" rx="2" fill="#0e4429"><title>2026-05-07: 5 contributions</title></rect><rect x="522" y="112" width="11" height="11" rx="2" fill="#006d32"><title>2026-05-08: 15 contributions</title></rect><rect x="522" y="126" width="11" height="11" rx="2" fill="#006d32"><title>2026-05-09: 12 contributions</title></rect><rect x="536" y="42" width="11" height="11" rx="2" fill="#26a641"><title>2026-05-10: 26 contributions</title></rect><rect x="536" y="56" width="11" height="11" rx="2" fill="#0e4429"><title>2026-05-11: 4 contributions</title></rect><rect x="536" y="70" width="11" height="11" rx="2" fill="#006d32"><title>2026-05-12: 11 contributions</title></rect><rect x="536" y="84" width="11" height="11" rx="2" fill="#0e4429"><title>2026-05-13: 7 contributions</title></rect><rect x="536" y="98" width="11" height="11" rx="2" fill="#0e4429"><title>2026-05-14: 9 contributions</title></rect><rect x="536" y="112" width="11" height="11" rx="2" fill="#0e4429"><title>2026-05-15: 8 contributions</title></rect><rect x="536" y="126" width="11" height="11" rx="2" fill="#0e4429"><title>2026-05-16: 7 contributions</title></rect><rect x="550" y="42" width="11" height="11" rx="2" fill="#0e4429"><title>2026-05-17: 3 contributions</title></rect><rect x="550" y="56" width="11" height="11" rx="2" fill="#0e4429"><title>2026-05-18: 4 contributions</title></rect><rect x="550" y="70" width="11" height="11" rx="2" fill="#0e4429"><title>2026-05-19: 10 contributions</title></rect><rect x="550" y="84" width="11" height="11" rx="2" fill="#006d32"><title>2026-05-20: 13 contributions</title></rect><rect x="550" y="98" width="11" height="11" rx="2" fill="#0e4429"><title>2026-05-21: 10 contributions</title></rect><rect x="550" y="112" width="11" height="11" rx="2" fill="#006d32"><title>2026-05-22: 11 contributions</title></rect><rect x="550" y="126" width="11" height="11" rx="2" fill="#161b22"><title>2026-05-23: 0 contributions</title></rect><rect x="564" y="42" width="11" height="11" rx="2" fill="#0e4429"><title>2026-05-24: 3 contributions</title></rect><rect x="564" y="56" width="11" height="11" rx="2" fill="#006d32"><title>2026-05-25: 13 contributions</title></rect><rect x="564" y="70" width="11" height="11" rx="2" fill="#006d32"><title>2026-05-26: 14 contributions</title></rect><rect x="564" y="84" width="11" height="11" rx="2" fill="#006d32"><title>2026-05-27: 12 contributions</title></rect><rect x="564" y="98" width="11" height="11" rx="2" fill="#006d32"><title>2026-05-28: 12 contributions</title></rect><rect x="564" y="112" width="11" height="11" rx="2" fill="#006d32"><title>2026-05-29: 12 contributions</title></rect><rect x="564" y="126" width="11" height="11" rx="2" fill="#0e4429"><title>2026-05-30: 5 contributions</title></rect><rect x="578" y="42" width="11" height="11" rx="2" fill="#0e4429"><title>2026-05-31: 1 contribution</title></rect><rect x="578" y="56" width="11" height="11" rx="2" fill="#0e4429"><title>2026-06-01: 8 contributions</title></rect><rect x="578" y="70" width="11" height="11" rx="2" fill="#006d32"><title>2026-06-02: 11 contributions</title></rect><rect x="578" y="84" width="11" height="11" rx="2" fill="#0e4429"><title>2026-06-03: 10 contributions</title></rect><rect x="578" y="98" width="11" height="11" rx="2" fill="#0e4429"><title>2026-06-04: 7 contributions</title></rect><rect x="578" y="112" width="11" height="11" rx="2" fill="#0e4429"><title>2026-06-05: 3 contributions</title></rect><rect x="578" y="126" width="11" height="11" rx="2" fill="#161b22"><title>2026-06-06: 0 contributions</title></rect><rect x="592" y="42" width="11" height="11" rx="2" fill="#161b22"><title>2026-06-07: 0 contributions</title></rect><rect x="592" y="56" width="11" height="11" rx="2" fill="#006d32"><title>2026-06-08: 12 contributions</title></rect><rect x="592" y="70" width="11" height="11" rx="2" fill="#0e4429"><title>2026-06-09: 6 contributions</title></rect><rect x="592" y="84" width="11" height="11" rx="2" fill="#0e4429"><title>2026-06-10: 7 contributions</title></rect><rect x="592" y="98" width="11" height="11" rx="2" fill="#006d32"><title>2026-06-11: 13 contributions</title></rect><rect x="592" y="112" width="11" height="11" rx="2" fill="#0e4429"><title>2026-06-12: 10 contributions</title></rect><rect x="592" y="126" width="11" height="11" rx="2" fill="#0e4429"><title>2026-06-13: 7 contributions</title></rect><rect x="606" y="42" width="11" height="11" rx="2" fill="#161b22"><title>2026-06-14: 0 contributions</title></rect><rect x="606" y="56" width="11" height="11" rx="2" fill="#006d32"><title>2026-06-15: 19 contributions</title></rect><rect x="606" y="70" width="11" height="11" rx="2" fill="#006d32"><title>2026-06-16: 11 contributions</title></rect><rect x="606" y="84" width="11" height="11" rx="2" fill="#0e4429"><title>2026-06-17: 10 contributions</title></rect><rect x="606" y="98" width="11" height="11" rx="2" fill="#006d32"><title>2026-06-18: 17 contributions</title></rect><rect x="606" y="112" width="11" height="11" rx="2" fill="#0e4429"><title>2026-06-19: 3 contributions</title></rect><rect x="606" y="126" width="11" height="11" rx="2" fill="#161b22"><title>2026-06-20: 0 contributions</title></rect><rect x="620" y="42" width="11" height="11" rx="2" fill="#161b22"><title>2026-06-21: 0 contributions</title></rect><rect x="620" y="56" width="11" height="11" rx="2" fill="#006d32"><title>2026-06-22: 14 contributions</title></rect><rect x="620" y="70" width="11" height="11" rx="2" fill="#26a641"><title>2026-06-23: 21 contributions</title></rect><rect x="620" y="84" width="11" height="11" rx="2" fill="#006d32"><title>2026-06-24: 18 contributions</title></rect><rect x="620" y="98" width="11" height="11" rx="2" fill="#006d32"><title>2026-06-25: 15 contributions</title></rect><rect x="620" y="112" width="11" height="11" rx="2" fill="#006d32"><title>2026-06-26: 19 contributions</title></rect><rect x="620" y="126" width="11" height="11" rx="2" fill="#0e4429"><title>2026-06-27: 10 contributions</title></rect><rect x="634" y="42" width="11" height="11" rx="2" fill="#006d32"><title>2026-06-28: 14 contributions</title></rect><rect x="634" y="56" width="11" height="11" rx="2" fill="#0e4429"><title>2026-06-29: 10 contributions</title></rect><rect x="634" y="70" width="11" height="11" rx="2" fill="#006d32"><title>2026-06-30: 16 contributions</title></rect><rect x="634" y="84" width="11" height="11" rx="2" fill="#0e4429"><title>2026-07-01: 10 contributions</title></rect><rect x="634" y="98" width="11" height="11" rx="2" fill="#39d353"><title>2026-07-02: 31 contributions</title></rect><rect x="634" y="112" width="11" height="11" rx="2" fill="#006d32"><title>2026-07-03: 17 contributions</title></rect><rect x="634" y="126" width="11" height="11" rx="2" fill="#0e4429"><title>2026-07-04: 2 contributions</title></rect><rect x="648" y="42" width="11" height="11" rx="2" fill="#26a641"><title>2026-07-05: 25 contributions</title></rect><rect x="648" y="56" width="11" height="11" rx="2" fill="#006d32"><title>2026-07-06: 11 contributions</title></rect><rect x="648" y="70" width="11" height="11" rx="2" fill="#006d32"><title>2026-07-07: 11 contributions</title></rect><rect x="648" y="84" width="11" height="11" rx="2" fill="#0e4429"><title>2026-07-08: 3 contributions</title></rect><rect x="648" y="98" width="11" height="11" rx="2" fill="#0e4429"><title>2026-07-09: 4 contributions</title></rect><rect x="648" y="112" width="11" height="11" rx="2" fill="#0e4429"><title>2026-07-10: 2 contributions</title></rect><rect x="648" y="126" width="11" height="11" rx="2" fill="#0e4429"><title>2026-07-11: 5 contributions</title></rect><rect x="662" y="42" width="11" height="11" rx="2" fill="#161b22"><title>2026-07-12: 0 contributions</title></rect><rect x="662" y="56" width="11" height="11" rx="2" fill="#0e4429"><title>2026-07-13: 10 contributions</title></rect><rect x="662" y="70" width="11" height="11" rx="2" fill="#006d32"><title>2026-07-14: 12 contributions</title></rect><rect x="662" y="84" width="11" height="11" rx="2" fill="#26a641"><title>2026-07-15: 24 contributions</title></rect><rect x="662" y="98" width="11" height="11" rx="2" fill="#26a641"><title>2026-07-16: 25 contributions</title></rect><rect x="662" y="112" width="11" height="11" rx="2" fill="#39d353"><title>2026-07-17: 41 contributions</title></rect><rect x="662" y="126" width="11" height="11" rx="2" fill="#006d32"><title>2026-07-18: 13 contributions</title></rect><rect x="676" y="42" width="11" height="11" rx="2" fill="#0e4429"><title>2026-07-19: 2 contributions</title></rect><rect x="676" y="56" width="11" height="11" rx="2" fill="#006d32"><title>2026-07-20: 13 contributions</title></rect><rect x="676" y="70" width="11" height="11" rx="2" fill="#0e4429"><title>2026-07-21: 10 contributions</title></rect><rect x="676" y="84" width="11" height="11" rx="2" fill="#006d32"><title>2026-07-22: 11 contributions</title></rect><rect x="676" y="98" width="11" height="11" rx="2" fill="#0e4429"><title>2026-07-23: 8 contributions</title></rect><rect x="676" y="112" width="11" height="11" rx="2" fill="#006d32"><title>2026-07-24: 14 contributions</title></rect><rect x="676" y="126" width="11" height="11" rx="2" fill="#161b22"><title>2026-07-25: 0 contributions</title></rect><rect x="690" y="42" width="11" height="11" rx="2" fill="#0e4429"><title>2026-07-26: 3 contributions</title></rect><rect x="690" y="56" width="11" height="11" rx="2" fill="#0e4429"><title>2026-07-27: 9 contributions</title></rect><rect x="690" y="70" width="11" height="11" rx="2" fill="#006d32"><title>2026-07-28: 11 contributions</title></rect><rect x="690" y="84" width="11" height="11" rx="2" fill="#0e4429"><title>2026-07-29: 4 contributions</title></rect><rect x="690" y="98" width="11" height="11" rx="2" fill="#0e4429"><title>2026-07-30: 4 contributions</title></rect><rect x="690" y="112" width="11" height="11" rx="2" fill="#006d32"><title>2026-07-31: 18 contributions</title></rect><rect x="690" y="126" width="11" height="11" rx="2" fill="#0e4429"><title>2026-08-01: 1 contribution</title></rect><rect x="704" y="42" width="11" height="11" rx="2" fill="#0e4429"><title>2026-08-02: 7 contributions</title></rect><rect x="704" y="56" width="11" height="11" rx="2" fill="#006d32"><title>2026-08-03: 11 contributions</title></rect><rect x="704" y="70" width="11" height="11" rx="2" fill="#006d32"><title>2026-08-04: 11 contributions</title></rect><rect x="704" y="84" width="11" height="11" rx="2" fill="#0e4429"><title>2026-08-05: 5 contributions</title></rect><rect x="704" y="98" width="11" height="11" rx="2" fill="#006d32"><title>2026-08-06: 19 contributions</title></rect><rect x="704" y="112" width="11" height="11" rx="2" fill="#0e4429"><title>2026-08-07: 6 contributions</title></rect><rect x="704" y="126" width="11" height="11" rx="2" fill="#006d32"><title>2026-08-08: 13 contributions</title></rect><rect x="718" y="42" width="11" height="11" rx="2" fill="#0e4429"><title>2026-08-09: 6 contributions</title></rect><rect x="718" y="56" width="11" height="11" rx="2" fill="#0e4429"><title>2026-08-10: 1 contribution</title></rect><rect x="718" y="70" width="11" height="11" rx="2" fill="#0e4429"><title>2026-08-11: 5 contributions</title></rect><rect x="718" y="84" width="11" height="11" rx="2" fill="#0e4429"><title>2026-08-12: 4 contributions</title></rect><rect x="718" y="98" width="11" height="11" rx="2" fill="#0e4429"><title>2026-08-13: 4 contributions</title></rect><rect x="718" y="112" width="11" height="11" rx="2" fill="#26a641"><title>2026-08-14: 27 contributions</title></rect><rect x="718" y="126" width="11" height="11" rx="2" fill="#0e4429"><title>2026-08-15: 7 contributions</title></rect><rect x="732" y="42" width="11" height="11" rx="2" fill="#006d32"><title>2026-08-16: 12 contributions</title></rect><rect x="732" y="56" width="11" height="11" rx="2" fill="#006d32"><title>2026-08-17: 13 contributions</title></rect><rect x="732" y="70" width="11" height="11" rx="2" fill="#006d32"><title>2026-08-18: 17 contributions</title></rect><rect x="732" y="84" width="11" height="11" rx="2" fill="#006d32"><title>2026-08-19: 13 contributions</title></rect><rect x="732" y="98" width="11" height="11" rx="2" fill="#26a641"><title>2026-08-20: 24 contributions</title></rect><rect x="732" y="112" width="11" height="11" rx="2" fill="#0e4429"><title>2026-08-21: 10 contributions</title></rect><rect x="732" y="126" width="11" height="11" rx="2" fill="#0e4429"><title>2026-08-22: 4 contributions</title></rect><rect x="746" y="42" width="11" height="11" rx="2" fill="#0e4429"><title>2026-08-23: 4 contributions</title></rect><rect x="746" y="56" width="11" height="11" rx="2" fill="#161b22"><title>2026-08-24: 0 contributions</title></rect><rect x="746" y="70" width="11" height="11" rx="2" fill="#006d32"><title>2026-08-25: 15 contributions</title></rect><rect x="746" y="84" width="11" height="11" rx="2" fill="#006d32"><title>2026-08-26: 14 contributions</title></rect><rect x="746" y="98" width="11" height="11" rx="2" fill="#0e4429"><title>2026-08-27: 9 contributions</title></rect><rect x="746" y="112" width="11" height="11" rx="2" fill="#0e4429"><title>2026-08-28: 2 contributions</title></rect></g>
  <g aria-hidden="true"><g class="frame frame-0" style="animation-delay:0.000s" data-generation="0"><rect x="662" y="112" width="11" height="11" rx="2"/><rect x="634" y="98" width="11" height="11" rx="2"/><rect x="718" y="112" width="11" height="11" rx="2"/></g><g class="frame frame-1" style="animation-delay:0.450s" data-generation="1"></g></g>
</svg>